<svg xmlns="http://www.w3.org/2000/svg" xmlns:xlink="http://www.w3.org/1999/xlink" xmlns:lucid="lucid" width="1760" height="1360"><g transform="translate(0 0)" lucid:page-tab-id="0_0"><path d="M140 260c0 27.6-22.4 50-50 50s-50-22.4-50-50 22.4-50 50-50 50 22.4 50 50z" stroke="#000" stroke-width="2" fill="#ffdba9"/><use xlink:href="#a" transform="matrix(1,0,0,1,45,215) translate(-2.4250000000000043 48.6)"/><path d="M160 410c0 27.6-22.4 50-50 50s-50-22.4-50-50 22.4-50 50-50 50 22.4 50 50z" stroke="#000" stroke-width="2" fill="#ffdba9"/><use xlink:href="#b" transform="matrix(1,0,0,1,65,365) translate(12.549999999999997 48.6)"/><path d="M220 1010c0 27.6-22.4 50-50 50s-50-22.4-50-50 22.4-50 50-50 50 22.4 50 50z" stroke="#000" stroke-width="2" fill="#c7e8ac"/><use xlink:href="#c" transform="matrix(1,0,0,1,125,965) translate(22.049999999999997 48.6)"/><path d="M420 890c0 27.6-22.4 50-50 50s-50-22.4-50-50 22.4-50 50-50 50 22.4 50 50z" stroke="#000" stroke-width="2" fill="#c7e8ac"/><use xlink:href="#d" transform="matrix(1,0,0,1,325,845) translate(11.549999999999997 37.8)"/><use xlink:href="#e" transform="matrix(1,0,0,1,325,845) translate(7.049999999999997 59.4)"/><path d="M420 1190c0 27.6-22.4 50-50 50s-50-22.4-50-50 22.4-50 50-50 50 22.4 50 50z" stroke="#000" stroke-width="2" fill="#c7e8ac"/><use xlink:href="#f" transform="matrix(1,0,0,1,325,1145) translate(25.525 48.6)"/><path d="M920 1130c0 27.6-22.4 50-50 50s-50-22.4-50-50 22.4-50 50-50 50 22.4 50 50z" stroke="#000" stroke-width="2" fill="#c7e8ac"/><use xlink:href="#g" transform="matrix(1,0,0,1,825,1085) translate(12.574999999999996 48.6)"/><path d="M580 850c0 27.6-22.4 50-50 50s-50-22.4-50-50 22.4-50 50-50 50 22.4 50 50z" stroke="#000" stroke-width="2" fill="#c1e4f7"/><use xlink:href="#h" transform="matrix(1,0,0,1,485,805) translate(11.049999999999997 48.6)"/><path d="M180 590c0 27.6-22.4 50-50 50s-50-22.4-50-50 22.4-50 50-50 50 22.4 50 50z" stroke="#000" stroke-width="2" fill="#ffdba9"/><use xlink:href="#i" transform="matrix(1,0,0,1,85,545) translate(7.049999999999997 48.6)"/><path d="M560 82c0 27.6-22.4 50-50 50s-50-22.4-50-50 22.4-50 50-50 50 22.4 50 50z" stroke="#000" stroke-width="2" fill="#ffdba9"/><use xlink:href="#j" transform="matrix(1,0,0,1,465,37) translate(20.049999999999997 48.6)"/><path d="M180 110c0 27.6-22.4 50-50 50s-50-22.4-50-50 22.4-50 50-50 50 22.4 50 50z" stroke="#000" stroke-width="2" fill="#ffdba9"/><use xlink:href="#k" transform="matrix(1,0,0,1,85,65) translate(25.525 48.6)"/><path d="M640 650c0 27.6-22.4 50-50 50s-50-22.4-50-50 22.4-50 50-50 50 22.4 50 50z" stroke="#000" stroke-width="2" fill="#c1e4f7"/><use xlink:href="#l" transform="matrix(1,0,0,1,545,605) translate(17 48.6)"/><path d="M1140 870c0 27.6-22.4 50-50 50s-50-22.4-50-50 22.4-50 50-50 50 22.4 50 50z" stroke="#000" stroke-width="2" fill="#c1e4f7"/><use xlink:href="#m" transform="matrix(1,0,0,1,1045,825) translate(-1.9250000000000043 48.6)"/><path d="M1300 770c0 27.6-22.4 50-50 50s-50-22.4-50-50 22.4-50 50-50 50 22.4 50 50z" stroke="#000" stroke-width="2" fill="#c1e4f7"/><use xlink:href="#n" transform="matrix(1,0,0,1,1205,725) translate(10.524999999999999 48.6)"/><path d="M531 800h-2v-19.2h2zm9-149h-39v108.2h-2V649h41zM531 800.05l-.74-.04h.74zm-.74-.04l-1.26.04 1-.04z"/><path d="M540 650l-14.27 4.64v-9.28z"/><path d="M540.05 648.97L540 650l.04 1.04-15.3 4.97v-12zm-13.32 4.3l10.03-3.27-10.03-3.26z"/><use xlink:href="#o" transform="matrix(1,0,0,1,457.1701754385965,759.2) translate(0 14.4)"/><path d="M171 1209h27.1v2H169v-151h2zm149-18h-39v20h-72.9v-2H279v-20h41zM171 1060h-1l1-.04zm-2 0h1z"/><path d="M320.06 1188.87L320 1190l.04 1.14-16.75 9.9-1.02-1.72 15.76-9.32-15.76-9.32 1-1.72z"/><use xlink:href="#p" transform="matrix(1,0,0,1,198.11316575709884,1199.2) translate(0 14.4)"/><path d="M371 1140h-2v-89.2h2zm0-110.8h-2V940h2zM371 940h-1l1-.04zm-2 0h1z"/><path d="M381.04 1123.3l-9.9 16.76-1.14-.06-1.14.04-9.9-16.75 1.72-1.02 9.32 15.76 9.32-15.76z"/><use xlink:href="#p" transform="matrix(1,0,0,1,365,1029.2) translate(0 14.4)"/><path d="M761 1171H599.67v38.9H417.34v-2h180.33V1169H759v-28.2h2zm59-40h-52.96v-2H820zM820.04 1131l-.04-1v-1z"/><path d="M435.06 1199.58l-15.76 9.32 15.76 9.32-1 1.72-17.94-10.6.4-1.12 17.53-10.36z"/><use xlink:href="#p" transform="matrix(1,0,0,1,757.0403491880188,1119.2) translate(0 14.4)"/><path d="M871 989v91h-2v-89H642.82v-2zm-276.13 0v2H529v-91h2v89zM871 1080.05l-.74-.04h.74zm-.74-.04l-1.26.04 1-.04z"/><path d="M534.64 914.27h-9.28L530 900z"/><path d="M530 900l1.04-.04 4.97 15.3h-12l4.97-15.3zm-3.26 13.27h6.52L530 903.24z"/><use xlink:href="#q" transform="matrix(1,0,0,1,594.8734848484848,979.2) translate(0 14.4)"/><path d="M154.5 961.8h-2V811.7h2zM131 790.1h-2V640h2zM131 640h-1l1-.04zm-2 0h1z"/><path d="M153.5 961.8l-4.64-14.27h9.27z"/><path d="M154.3 962.58l-1.45.48-5.37-16.53h12.03zm-4.06-14.05l3.25 10.03 3.25-10.03z"/><use xlink:href="#r" transform="matrix(1,0,0,1,115.772419670826,790.0968139712669) translate(0 14.4)"/><path d="M946.83 771H697.65v108.64H572.2v-2h123.45V769h251.18zm253.17 0H975.78v-2H1200zM572.2 879.64h-2l1.1-1.44.34-.56h.56z"/><path d="M1200 770l-14.27 4.64v-9.28z"/><path d="M1200.05 768.97L1200 770l.04 1.04-15.3 4.97v-12zm-13.32 4.3l10.03-3.27-10.03-3.26z"/><use xlink:href="#s" transform="matrix(1,0,0,1,946.8301796245981,759.2) translate(0 14.4)"/><path d="M1180 490c0 27.6-22.4 50-50 50s-50-22.4-50-50 22.4-50 50-50 50 22.4 50 50z" stroke="#000" stroke-width="2" fill="#c7e8ac"/><use xlink:href="#t" transform="matrix(1,0,0,1,1085,445) translate(14.024999999999999 48.6)"/><path d="M323.47 868.2v2H266v-2zM231 858.4h-2V617.85h-55.7v-2H231zM173.3 617.86h-1.8l1.23-2h.56z"/><path d="M323.47 869.2l-14.27 4.63v-9.28z"/><path d="M324.87 868.6l-.7 1.4-15.97 5.2v-12.02zm-14.67 3.85l10.03-3.26-10.03-3.27z"/><use xlink:href="#r" transform="matrix(1,0,0,1,214.03625303606853,858.3899187585201) translate(0 14.4)"/><path d="M824.98 875.98H761v78.06H556.35v-61h2v59H759v-78.06h65.98zm214.3 0H853.94v-2h185.36z"/><path d="M558.35 893.04h-2v-.58l.63-.36 1.37-.98zM1039.3 874.98L1025 879.6v-9.26z"/><path d="M1040.2 874.22l.18 1.45-16.36 5.32v-12.03zm-14.18 4.02l10.03-3.26-10.03-3.26z"/><use xlink:href="#s" transform="matrix(1,0,0,1,824.975643470043,864.178036819246) translate(0 14.4)"/><path d="M830 640h100v-40H830z" stroke="#000" stroke-width="2" fill="#fff"/><use xlink:href="#u" transform="matrix(1,0,0,1,835,605) translate(9.074999999999996 18.6)"/><path d="M751.27 621h-16.5v11.53h-97.22v-2h95.23V619h18.5zm78.73 0h-42.78v-2H830z"/><path d="M637.55 632.53h-.72l-.2-.64-.62-1.37h1.55zM830 620l-14.27 4.64v-9.28z"/><path d="M830 618.95v2.1L814.73 626v-12zm-13.27 4.3l10.03-3.25-10.03-3.26z"/><use xlink:href="#v" transform="matrix(1,0,0,1,751.2721679725465,609.2) translate(0 14.4)"/><path d="M512.2 1105.4h312.62v2H510.2v-76.6h2zm-30.85-86.4v2H439V891h-19v-2h21v130zM420 890v1l-.04-2z"/><path d="M824.82 1106.4l-14.27 4.63v-9.27z"/><path d="M826.25 1105.8l-.16.26-.57 1.16-15.98 5.2v-12.04zm-14.7 3.86l10.03-3.26-10.03-3.26z"/><use xlink:href="#r" transform="matrix(1,0,0,1,481.3519829049899,1009.2) translate(0 14.4)"/><path d="M460 330c0 27.6-22.4 50-50 50s-50-22.4-50-50 22.4-50 50-50 50 22.4 50 50z" stroke="#000" stroke-width="2" fill="#ffdba9"/><use xlink:href="#w" transform="matrix(1,0,0,1,365,285) translate(28.525 48.6)"/><path d="M381 259h30v21h-2v-19h-30V111h-12.3v-2H381zM180 111v-2h40.85v2zM180 110v1l-.04-2z"/><path d="M410 280l-4.64-14.27h9.28z"/><path d="M411.03 280.05L410 280l-1.04.04-4.97-15.3h12zm-4.3-13.32l3.27 10.03 3.26-10.03z"/><use xlink:href="#x" transform="matrix(1,0,0,1,220.85277777777776,99.2) translate(0 14.4)"/><use xlink:href="#y" transform="matrix(1,0,0,1,220.85277777777776,99.2) translate(34.95 14.4)"/><path d="M511 331h-51v-2h49V193.04h2zm0-159.56h-2V132h2zM511 132h-1l1-.04zm-2 0h1z"/><path d="M474.27 334.64L460 330l14.27-4.64z"/><path d="M475.27 336l-15.32-4.97.05-1.03-.04-1.04 15.3-4.97zm-12.03-6l10.03 3.26v-6.52z"/><use xlink:href="#x" transform="matrix(1,0,0,1,437.075,171.4358974358974) translate(0 14.4)"/><use xlink:href="#y" transform="matrix(1,0,0,1,437.075,171.4358974358974) translate(34.95 14.4)"/><path d="M251 329h109v2H249v-60.2h2zm-111-68v-2h33.97v2z"/><path d="M154.27 264.64L140 260l14.27-4.64z"/><path d="M155.27 266l-15.32-4.97.05-1.03-.04-1.04 15.3-4.97zm-12.03-6l10.03 3.26v-6.52zM360.04 331l-.04-1v-1z"/><use xlink:href="#o" transform="matrix(1,0,0,1,173.96666666666667,249.2) translate(0 14.4)"/><path d="M900 190c0 27.6-22.4 50-50 50s-50-22.4-50-50 22.4-50 50-50 50 22.4 50 50z" stroke="#000" stroke-width="2" fill="#ffdba9"/><use xlink:href="#z" transform="matrix(1,0,0,1,805,145) translate(27 48.6)"/><path d="M860 330c0 27.6-22.4 50-50 50s-50-22.4-50-50 22.4-50 50-50 50 22.4 50 50z" stroke="#000" stroke-width="2" fill="#ffdba9"/><use xlink:href="#A" transform="matrix(1,0,0,1,765,285) translate(15.524999999999999 48.6)"/><path d="M547.52 359.76h-95.4v-2h95.4zM760 331h-19v28.76h-47.63v-2H739V329h21zM760.04 331l-.04-1v-1z"/><path d="M466.4 363.4l-14.28-4.64 14.27-4.63z"/><path d="M467.4 364.78l-16.93-5.5.83-1.08.16-.27 15.93-5.18zm-12.04-6.02l10.03 3.26v-6.52z"/><use xlink:href="#x" transform="matrix(1,0,0,1,547.5178854999999,347.963826) translate(0 14.4)"/><use xlink:href="#y" transform="matrix(1,0,0,1,547.5178854999999,347.963826) translate(34.95 14.4)"/><path d="M628.57 307.3H455.14v-2h171.43v-84.47h2zM800 191H628.57v8.23h-2V189H800zM800.04 191l-.04-1v-1z"/><path d="M469.4 310.93l-14.26-4.63 14.26-4.64z"/><path d="M470.4 312.3l-15.94-5.17-.8-1.4 16.74-5.44zm-12.03-6l10.03 3.26v-6.52z"/><use xlink:href="#x" transform="matrix(1,0,0,1,554.6435550485687,199.22667138477334) translate(0 14.4)"/><use xlink:href="#y" transform="matrix(1,0,0,1,554.6435550485687,199.22667138477334) translate(34.95 14.4)"/><path d="M680 430c0 27.6-22.4 50-50 50s-50-22.4-50-50 22.4-50 50-50 50 22.4 50 50z" stroke="#000" stroke-width="2" fill="#ffdba9"/><use xlink:href="#B" transform="matrix(1,0,0,1,585,385) translate(15 48.6)"/><path d="M196.33 411H160v-2h36.33zm175.12-46.7H266.72V411h-60.4v-2h58.4v-46.7h106.73zM160 410v1l-.04-2z"/><path d="M372.1 362.52l.9 1.02-18.26 10.8-1.02-1.72 15.76-9.32-15.76-9.32 1.02-1.73z"/><use xlink:href="#p" transform="matrix(1,0,0,1,196.33333333333334,399.2) translate(0 14.4)"/><path d="M435.05 429h39.44v2h-41.45v-56.06h2zM580 429v2h-95.5v-2zM580.04 431l-.04-1v-1z"/><path d="M445.1 391.64l-1.73 1.02-9.32-15.76-9.32 15.76-1.72-1.02 10.32-17.44 1.1-.62z"/><use xlink:href="#p" transform="matrix(1,0,0,1,474.49302267730604,419.2) translate(0 14.4)"/><path d="M391.15 539h245.23v-26.74h117.2v2h-115.2V541H389.15V377h2zm693.46-24.74H819.54v-2h265.08zM390.54 376.07l.6.23v.7h-2v-1.6z"/><path d="M1084.6 513.26l-14.26 4.63v-9.28z"/><path d="M1085.32 512.44l.1.2.67 1.2-16.76 5.43v-12.02zm-13.98 4.08l10.03-3.26-10.03-3.26z"/><use xlink:href="#C" transform="matrix(1,0,0,1,753.578136353566,502.4580947445991) translate(0 14.4)"/><path d="M411 569h370.3v-11.57h2V571H409V380h2zm684.6-1.37H1039v-20H809.8v-2H1041v20h52.6v-39h2zM411 380h-1l1-.04zm-2 0h1z"/><path d="M1099.23 540.9h-9.27l4.63-14.27z"/><path d="M1094.13 524.83l1.33 1.25 5.14 15.82h-12.02l5.55-17.07zm-2.8 15.07h6.52l-3.26-10.03z"/><use xlink:href="#D" transform="matrix(1,0,0,1,766.85455459884,535.8304383210141) translate(0 14.4)"/><path d="M562.2 809.74h-2V780.8h2zm271.4-123.87H671v72.43H562.2v.9h-2v-2.9H669v-72.43h164.6zm297.4 0h-84.6v-2h82.6V540h2zM1131 540h-1l1-.04zm-2 0h1z"/><path d="M561.2 809.74l-4.62-14.27h9.27z"/><path d="M561.73 811.4l-1.37-1.05-5.16-15.88h12.02zm-3.78-14.93l3.26 10.03 3.27-10.03z"/><use xlink:href="#E" transform="matrix(1,0,0,1,833.6,674.0696353293566) translate(0 14.4)"/><use xlink:href="#F" transform="matrix(1,0,0,1,833.6,674.0696353293566) translate(82.95 14.4)"/><use xlink:href="#G" transform="matrix(1,0,0,1,833.6,674.0696353293566) translate(107.95 14.4)"/><use xlink:href="#H" transform="matrix(1,0,0,1,833.6,674.0696353293566) translate(135.9 14.4)"/><path d="M371.6 591H180v-2h189.6V363.3h2zM180 590v1l-.04-2z"/><path d="M381.64 380l-1.72 1.02-9.32-15.76-9.32 15.76-1.72-1.02 11.04-18.67zM371 1279h345.42v2H369v-41h2zm990 2H726.42v-2H1359V491h-179v-2h181z"/><path d="M1180 490v1l-.04-2zM370 1240l1.14-.04 9.9 16.75-1.72 1.02-9.32-15.76-9.32 15.76-1.72-1 9.9-16.78z"/><g><use xlink:href="#p" transform="matrix(1,0,0,1,716.4165625561318,1269.2) translate(0 14.4)"/></g><defs><path d="M30-248c87 1 191-15 191 75 0 78-77 80-158 76V0H30v-248zm33 125c57 0 124 11 124-50 0-59-68-47-124-48v98" id="I"/><path d="M141-36C126-15 110 5 73 4 37 3 15-17 15-53c-1-64 63-63 125-63 3-35-9-54-41-54-24 1-41 7-42 31l-33-3c5-37 33-52 76-52 45 0 72 20 72 64v82c-1 20 7 32 28 27v20c-31 9-61-2-59-35zM48-53c0 20 12 33 32 33 41-3 63-29 60-74-43 2-92-5-92 41" id="J"/><path d="M114-163C36-179 61-72 57 0H25l-1-190h30c1 12-1 29 2 39 6-27 23-49 58-41v29" id="K"/><path d="M59-47c-2 24 18 29 38 22v24C64 9 27 4 27-40v-127H5v-23h24l9-43h21v43h35v23H59v120" id="L"/><path d="M24-231v-30h32v30H24zM24 0v-190h32V0H24" id="M"/><path d="M96-169c-40 0-48 33-48 73s9 75 48 75c24 0 41-14 43-38l32 2c-6 37-31 61-74 61-59 0-76-41-82-99-10-93 101-131 147-64 4 7 5 14 7 22l-32 3c-4-21-16-35-41-35" id="N"/><path d="M115-194c55 1 70 41 70 98S169 2 115 4C84 4 66-9 55-30l1 105H24l-1-265h31l2 30c10-21 28-34 59-34zm-8 174c40 0 45-34 45-75s-6-73-45-74c-42 0-51 32-51 76 0 43 10 73 51 73" id="O"/><path d="M117-194c89-4 53 116 60 194h-32v-121c0-31-8-49-39-48C34-167 62-67 57 0H25l-1-190h30c1 10-1 24 2 32 11-22 29-35 61-36" id="P"/><path d="M100-194c63 0 86 42 84 106H49c0 40 14 67 53 68 26 1 43-12 49-29l28 8c-11 28-37 45-77 45C44 4 14-33 15-96c1-61 26-98 85-98zm52 81c6-60-76-77-97-28-3 7-6 17-6 28h103" id="Q"/><g id="a"><use transform="matrix(0.05,0,0,0.05,0,0)" xlink:href="#I"/><use transform="matrix(0.05,0,0,0.05,12,0)" xlink:href="#J"/><use transform="matrix(0.05,0,0,0.05,22,0)" xlink:href="#K"/><use transform="matrix(0.05,0,0,0.05,27.950000000000003,0)" xlink:href="#L"/><use transform="matrix(0.05,0,0,0.05,32.95,0)" xlink:href="#M"/><use transform="matrix(0.05,0,0,0.05,36.900000000000006,0)" xlink:href="#N"/><use transform="matrix(0.05,0,0,0.05,45.900000000000006,0)" xlink:href="#M"/><use transform="matrix(0.05,0,0,0.05,49.85000000000001,0)" xlink:href="#O"/><use transform="matrix(0.05,0,0,0.05,59.85,0)" xlink:href="#J"/><use transform="matrix(0.05,0,0,0.05,69.85000000000001,0)" xlink:href="#P"/><use transform="matrix(0.05,0,0,0.05,79.85000000000001,0)" xlink:href="#L"/><use transform="matrix(0.05,0,0,0.05,84.85000000000001,0)" xlink:href="#Q"/></g><path d="M185-189c-5-48-123-54-124 2 14 75 158 14 163 119 3 78-121 87-175 55-17-10-28-26-33-46l33-7c5 56 141 63 141-1 0-78-155-14-162-118-5-82 145-84 179-34 5 7 8 16 11 25" id="R"/><path d="M135-143c-3-34-86-38-87 0 15 53 115 12 119 90S17 21 10-45l28-5c4 36 97 45 98 0-10-56-113-15-118-90-4-57 82-63 122-42 12 7 21 19 24 35" id="S"/><path d="M210-169c-67 3-38 105-44 169h-31v-121c0-29-5-50-35-48C34-165 62-65 56 0H25l-1-190h30c1 10-1 24 2 32 10-44 99-50 107 0 11-21 27-35 58-36 85-2 47 119 55 194h-31v-121c0-29-5-49-35-48" id="T"/><g id="b"><use transform="matrix(0.05,0,0,0.05,0,0)" xlink:href="#R"/><use transform="matrix(0.05,0,0,0.05,12,0)" xlink:href="#M"/><use transform="matrix(0.05,0,0,0.05,15.949999999999998,0)" xlink:href="#S"/><use transform="matrix(0.05,0,0,0.05,24.95,0)" xlink:href="#L"/><use transform="matrix(0.05,0,0,0.05,29.950000000000003,0)" xlink:href="#Q"/><use transform="matrix(0.05,0,0,0.05,39.95,0)" xlink:href="#T"/><use transform="matrix(0.05,0,0,0.05,54.900000000000006,0)" xlink:href="#J"/></g><path d="M232-93c-1 65-40 97-104 97C67 4 28-28 28-90v-158h33c8 89-33 224 67 224 102 0 64-133 71-224h33v155" id="U"/><g id="c"><use transform="matrix(0.05,0,0,0.05,0,0)" xlink:href="#U"/><use transform="matrix(0.05,0,0,0.05,12.950000000000001,0)" xlink:href="#S"/><use transform="matrix(0.05,0,0,0.05,21.950000000000003,0)" xlink:href="#M"/><use transform="matrix(0.05,0,0,0.05,25.900000000000002,0)" xlink:href="#P"/><use transform="matrix(0.05,0,0,0.05,35.900000000000006,0)" xlink:href="#J"/></g><path d="M85-194c31 0 48 13 60 33l-1-100h32l1 261h-30c-2-10 0-23-3-31C134-8 116 4 85 4 32 4 16-35 15-94c0-66 23-100 70-100zm9 24c-40 0-46 34-46 75 0 40 6 74 45 74 42 0 51-32 51-76 0-42-9-74-50-73" id="V"/><g id="d"><use transform="matrix(0.05,0,0,0.05,0,0)" xlink:href="#U"/><use transform="matrix(0.05,0,0,0.05,12.950000000000001,0)" xlink:href="#P"/><use transform="matrix(0.05,0,0,0.05,22.950000000000003,0)" xlink:href="#M"/><use transform="matrix(0.05,0,0,0.05,26.900000000000002,0)" xlink:href="#V"/><use transform="matrix(0.05,0,0,0.05,36.900000000000006,0)" xlink:href="#J"/><use transform="matrix(0.05,0,0,0.05,46.900000000000006,0)" xlink:href="#V"/><use transform="matrix(0.05,0,0,0.05,56.900000000000006,0)" xlink:href="#Q"/></g><path d="M143 4C61 4 22-44 18-125c-5-107 100-154 193-111 17 8 29 25 37 43l-32 9c-13-25-37-40-76-40-61 0-88 39-88 99 0 61 29 100 91 101 35 0 62-11 79-27v-45h-74v-28h105v86C228-13 192 4 143 4" id="W"/><path d="M100-194c62-1 85 37 85 99 1 63-27 99-86 99S16-35 15-95c0-66 28-99 85-99zM99-20c44 1 53-31 53-75 0-43-8-75-51-75s-53 32-53 75 10 74 51 75" id="X"/><g id="e"><use transform="matrix(0.05,0,0,0.05,0,0)" xlink:href="#W"/><use transform="matrix(0.05,0,0,0.05,14,0)" xlink:href="#Q"/><use transform="matrix(0.05,0,0,0.05,24,0)" xlink:href="#K"/><use transform="matrix(0.05,0,0,0.05,29.950000000000003,0)" xlink:href="#J"/><use transform="matrix(0.05,0,0,0.05,39.95,0)" xlink:href="#V"/><use transform="matrix(0.05,0,0,0.05,49.95,0)" xlink:href="#X"/><use transform="matrix(0.05,0,0,0.05,59.95,0)" xlink:href="#K"/><use transform="matrix(0.05,0,0,0.05,65.9,0)" xlink:href="#J"/></g><path d="M205 0l-28-72H64L36 0H1l101-248h38L239 0h-34zm-38-99l-47-123c-12 45-31 82-46 123h93" id="Y"/><path d="M108 0H70L1-190h34L89-25l56-165h34" id="Z"/><g id="f"><use transform="matrix(0.05,0,0,0.05,0,0)" xlink:href="#Y"/><use transform="matrix(0.05,0,0,0.05,12,0)" xlink:href="#L"/><use transform="matrix(0.05,0,0,0.05,17,0)" xlink:href="#M"/><use transform="matrix(0.05,0,0,0.05,20.95,0)" xlink:href="#Z"/><use transform="matrix(0.05,0,0,0.05,29.950000000000003,0)" xlink:href="#N"/></g><path d="M240 0l2-218c-23 76-54 145-80 218h-23L58-218 59 0H30v-248h44l77 211c21-75 51-140 76-211h43V0h-30" id="aa"/><g id="g"><use transform="matrix(0.05,0,0,0.05,0,0)" xlink:href="#aa"/><use transform="matrix(0.05,0,0,0.05,14.950000000000001,0)" xlink:href="#Q"/><use transform="matrix(0.05,0,0,0.05,24.950000000000003,0)" xlink:href="#V"/><use transform="matrix(0.05,0,0,0.05,34.95,0)" xlink:href="#M"/><use transform="matrix(0.05,0,0,0.05,38.900000000000006,0)" xlink:href="#V"/><use transform="matrix(0.05,0,0,0.05,48.900000000000006,0)" xlink:href="#X"/><use transform="matrix(0.05,0,0,0.05,58.900000000000006,0)" xlink:href="#K"/></g><path d="M96-169c-40 0-48 33-48 73s9 75 48 75c24 0 41-14 43-38l32 2c-6 37-31 61-74 61-59 0-76-41-82-99-10-93 101-131 147-64 4 7 5 14 7 22l-32 3c-4-21-16-35-41-35zm3 187c19-1 33 8 33 26 0 31-30 33-64 32V58c18 2 39 4 41-13 1-15-18-13-34-13L87 0h19" id="ab"/><path d="M141-36C126-15 110 5 73 4 37 3 15-17 15-53c-1-64 63-63 125-63 3-35-9-54-41-54-24 1-41 7-42 31l-33-3c5-37 33-52 76-52 45 0 72 20 72 64v82c-1 20 7 32 28 27v20c-31 9-61-2-59-35zM48-53c0 20 12 33 32 33 41-3 63-29 60-74-43 2-92-5-92 41zm117-205c-3 23-9 48-36 47-26-1-65-44-74 0H39c4-23 8-48 36-47s64 44 74 0h16" id="ac"/><g id="h"><use transform="matrix(0.05,0,0,0.05,0,0)" xlink:href="#aa"/><use transform="matrix(0.05,0,0,0.05,14.950000000000001,0)" xlink:href="#Q"/><use transform="matrix(0.05,0,0,0.05,24.950000000000003,0)" xlink:href="#V"/><use transform="matrix(0.05,0,0,0.05,34.95,0)" xlink:href="#M"/><use transform="matrix(0.05,0,0,0.05,38.900000000000006,0)" xlink:href="#ab"/><use transform="matrix(0.05,0,0,0.05,47.900000000000006,0)" xlink:href="#ac"/><use transform="matrix(0.05,0,0,0.05,57.900000000000006,0)" xlink:href="#X"/></g><g id="i"><use transform="matrix(0.05,0,0,0.05,0,0)" xlink:href="#W"/><use transform="matrix(0.05,0,0,0.05,14,0)" xlink:href="#Q"/><use transform="matrix(0.05,0,0,0.05,24,0)" xlink:href="#K"/><use transform="matrix(0.05,0,0,0.05,29.950000000000003,0)" xlink:href="#J"/><use transform="matrix(0.05,0,0,0.05,39.95,0)" xlink:href="#V"/><use transform="matrix(0.05,0,0,0.05,49.95,0)" xlink:href="#X"/><use transform="matrix(0.05,0,0,0.05,59.95,0)" xlink:href="#K"/><use transform="matrix(0.05,0,0,0.05,65.9,0)" xlink:href="#J"/></g><path d="M212-179c-10-28-35-45-73-45-59 0-87 40-87 99 0 60 29 101 89 101 43 0 62-24 78-52l27 14C228-24 195 4 139 4 59 4 22-46 18-125c-6-104 99-153 187-111 19 9 31 26 39 46" id="ad"/><path d="M30 0v-248h187v28H63v79h144v27H63v87h162V0H30" id="ae"/><g id="j"><use transform="matrix(0.05,0,0,0.05,0,0)" xlink:href="#ad"/><use transform="matrix(0.05,0,0,0.05,12.950000000000001,0)" xlink:href="#ad"/><use transform="matrix(0.05,0,0,0.05,25.900000000000002,0)" xlink:href="#ae"/><use transform="matrix(0.05,0,0,0.05,37.900000000000006,0)" xlink:href="#ae"/></g><path d="M140-251c81 0 123 46 123 126C263-46 219 4 140 4 59 4 17-45 17-125s42-126 123-126zm0 227c63 0 89-41 89-101s-29-99-89-99c-61 0-89 39-89 99S79-25 140-24" id="af"/><path d="M190 0L58-211 59 0H30v-248h39L202-35l-2-213h31V0h-41" id="ag"/><g id="k"><use transform="matrix(0.05,0,0,0.05,0,0)" xlink:href="#af"/><use transform="matrix(0.05,0,0,0.05,14,0)" xlink:href="#ag"/><use transform="matrix(0.05,0,0,0.05,26.950000000000003,0)" xlink:href="#R"/></g><g id="l"><use transform="matrix(0.05,0,0,0.05,0,0)" xlink:href="#ae"/><use transform="matrix(0.05,0,0,0.05,12,0)" xlink:href="#Z"/><use transform="matrix(0.05,0,0,0.05,21,0)" xlink:href="#Q"/><use transform="matrix(0.05,0,0,0.05,31,0)" xlink:href="#P"/><use transform="matrix(0.05,0,0,0.05,41,0)" xlink:href="#L"/><use transform="matrix(0.05,0,0,0.05,46,0)" xlink:href="#X"/></g><path d="M33 0v-248h34V0H33" id="ah"/><path d="M141-36C126-15 110 5 73 4 37 3 15-17 15-53c-1-64 63-63 125-63 3-35-9-54-41-54-24 1-41 7-42 31l-33-3c5-37 33-52 76-52 45 0 72 20 72 64v82c-1 20 7 32 28 27v20c-31 9-61-2-59-35zM48-53c0 20 12 33 32 33 41-3 63-29 60-74-43 2-92-5-92 41zm67-209c12 18 30 30 39 51-31 2-38-20-57-30-20 10-27 32-59 30 9-22 29-33 41-51h36" id="ai"/><path d="M115-194c53 0 69 39 70 98 0 66-23 100-70 100C84 3 66-7 56-30L54 0H23l1-261h32v101c10-23 28-34 59-34zm-8 174c40 0 45-34 45-75 0-40-5-75-45-74-42 0-51 32-51 76 0 43 10 73 51 73" id="aj"/><g id="m"><use transform="matrix(0.05,0,0,0.05,0,0)" xlink:href="#ah"/><use transform="matrix(0.05,0,0,0.05,5,0)" xlink:href="#P"/><use transform="matrix(0.05,0,0,0.05,15,0)" xlink:href="#L"/><use transform="matrix(0.05,0,0,0.05,20,0)" xlink:href="#Q"/><use transform="matrix(0.05,0,0,0.05,30,0)" xlink:href="#K"/><use transform="matrix(0.05,0,0,0.05,35.95,0)" xlink:href="#N"/><use transform="matrix(0.05,0,0,0.05,44.95,0)" xlink:href="#ai"/><use transform="matrix(0.05,0,0,0.05,54.95,0)" xlink:href="#T"/><use transform="matrix(0.05,0,0,0.05,69.9,0)" xlink:href="#aj"/><use transform="matrix(0.05,0,0,0.05,79.9,0)" xlink:href="#M"/><use transform="matrix(0.05,0,0,0.05,83.85000000000001,0)" xlink:href="#X"/></g><g id="n"><use transform="matrix(0.05,0,0,0.05,0,0)" xlink:href="#W"/><use transform="matrix(0.05,0,0,0.05,14,0)" xlink:href="#Q"/><use transform="matrix(0.05,0,0,0.05,24,0)" xlink:href="#K"/><use transform="matrix(0.05,0,0,0.05,29.950000000000003,0)" xlink:href="#J"/><use transform="matrix(0.05,0,0,0.05,39.95,0)" xlink:href="#ab"/><use transform="matrix(0.05,0,0,0.05,48.95,0)" xlink:href="#ac"/><use transform="matrix(0.05,0,0,0.05,58.95,0)" xlink:href="#X"/></g><path d="M206 0h-36l-40-164L89 0H53L-1-190h32L70-26l43-164h34l41 164 42-164h31" id="ak"/><path d="M24 0v-261h32V0H24" id="al"/><path d="M33-154v-36h34v36H33zM33 0v-36h34V0H33" id="am"/><path d="M145-31C134-9 116 4 85 4 32 4 16-35 15-94c0-59 17-99 70-100 32-1 48 14 60 33 0-11-1-24 2-32h30l-1 268h-32zM93-21c41 0 51-33 51-76s-8-73-50-73c-40 0-46 35-46 75s5 74 45 74" id="an"/><path d="M84 4C-5 8 30-112 23-190h32v120c0 31 7 50 39 49 72-2 45-101 50-169h31l1 190h-30c-1-10 1-25-2-33-11 22-28 36-60 37" id="ao"/><g id="o"><use transform="matrix(0.05,0,0,0.05,0,0)" xlink:href="#X"/><use transform="matrix(0.05,0,0,0.05,10,0)" xlink:href="#ak"/><use transform="matrix(0.05,0,0,0.05,22.950000000000003,0)" xlink:href="#al"/><use transform="matrix(0.05,0,0,0.05,26.900000000000002,0)" xlink:href="#am"/><use transform="matrix(0.05,0,0,0.05,31.900000000000002,0)" xlink:href="#Q"/><use transform="matrix(0.05,0,0,0.05,41.900000000000006,0)" xlink:href="#an"/><use transform="matrix(0.05,0,0,0.05,51.900000000000006,0)" xlink:href="#ao"/><use transform="matrix(0.05,0,0,0.05,61.900000000000006,0)" xlink:href="#M"/><use transform="matrix(0.05,0,0,0.05,65.85000000000001,0)" xlink:href="#Z"/><use transform="matrix(0.05,0,0,0.05,74.85000000000001,0)" xlink:href="#J"/><use transform="matrix(0.05,0,0,0.05,84.85000000000001,0)" xlink:href="#al"/><use transform="matrix(0.05,0,0,0.05,88.80000000000001,0)" xlink:href="#Q"/><use transform="matrix(0.05,0,0,0.05,98.80000000000001,0)" xlink:href="#P"/><use transform="matrix(0.05,0,0,0.05,108.80000000000001,0)" xlink:href="#L"/></g><path d="M100-194c63 0 86 42 84 106H49c0 40 14 67 53 68 26 1 43-12 49-29l28 8c-11 28-37 45-77 45C44 4 14-33 15-96c1-61 26-98 85-98zm52 81c6-60-76-77-97-28-3 7-6 17-6 28h103zm-74-98c8-23 27-35 38-54h36v5l-58 49H78" id="ap"/><use transform="matrix(0.05,0,0,0.05,0,0)" xlink:href="#ap" id="p"/><g id="q"><use transform="matrix(0.05,0,0,0.05,0,0)" xlink:href="#N"/><use transform="matrix(0.05,0,0,0.05,9,0)" xlink:href="#X"/><use transform="matrix(0.05,0,0,0.05,19,0)" xlink:href="#al"/><use transform="matrix(0.05,0,0,0.05,22.95,0)" xlink:href="#Q"/><use transform="matrix(0.05,0,0,0.05,32.95,0)" xlink:href="#L"/><use transform="matrix(0.05,0,0,0.05,37.95,0)" xlink:href="#J"/></g><g id="r"><use transform="matrix(0.05,0,0,0.05,0,0)" xlink:href="#O"/><use transform="matrix(0.05,0,0,0.05,10,0)" xlink:href="#X"/><use transform="matrix(0.05,0,0,0.05,20,0)" xlink:href="#S"/><use transform="matrix(0.05,0,0,0.05,29,0)" xlink:href="#S"/><use transform="matrix(0.05,0,0,0.05,38,0)" xlink:href="#ao"/><use transform="matrix(0.05,0,0,0.05,48,0)" xlink:href="#M"/></g><g id="s"><use transform="matrix(0.05,0,0,0.05,0,0)" xlink:href="#L"/><use transform="matrix(0.05,0,0,0.05,5,0)" xlink:href="#M"/><use transform="matrix(0.05,0,0,0.05,8.95,0)" xlink:href="#O"/><use transform="matrix(0.05,0,0,0.05,18.95,0)" xlink:href="#X"/></g><path d="M30-248c118-7 216 8 213 122C240-48 200 0 122 0H30v-248zM63-27c89 8 146-16 146-99s-60-101-146-95v194" id="aq"/><g id="t"><use transform="matrix(0.05,0,0,0.05,0,0)" xlink:href="#aq"/><use transform="matrix(0.05,0,0,0.05,12.950000000000001,0)" xlink:href="#J"/><use transform="matrix(0.05,0,0,0.05,22.950000000000003,0)" xlink:href="#L"/><use transform="matrix(0.05,0,0,0.05,27.950000000000003,0)" xlink:href="#J"/><use transform="matrix(0.05,0,0,0.05,37.95,0)" xlink:href="#S"/><use transform="matrix(0.05,0,0,0.05,46.95,0)" xlink:href="#Q"/><use transform="matrix(0.05,0,0,0.05,56.95,0)" xlink:href="#L"/></g><g id="u"><use transform="matrix(0.05,0,0,0.05,0,0)" xlink:href="#aq"/><use transform="matrix(0.05,0,0,0.05,12.950000000000001,0)" xlink:href="#J"/><use transform="matrix(0.05,0,0,0.05,22.950000000000003,0)" xlink:href="#L"/><use transform="matrix(0.05,0,0,0.05,27.950000000000003,0)" xlink:href="#Q"/><use transform="matrix(0.05,0,0,0.05,37.95,0)" xlink:href="#L"/><use transform="matrix(0.05,0,0,0.05,42.95,0)" xlink:href="#M"/><use transform="matrix(0.05,0,0,0.05,46.900000000000006,0)" xlink:href="#T"/><use transform="matrix(0.05,0,0,0.05,61.85,0)" xlink:href="#Q"/></g><path d="M106-169C34-169 62-67 57 0H25v-261h32l-1 103c12-21 28-36 61-36 89 0 53 116 60 194h-32v-121c2-32-8-49-39-48" id="ar"/><g id="v"><use transform="matrix(0.05,0,0,0.05,0,0)" xlink:href="#ar"/><use transform="matrix(0.05,0,0,0.05,10,0)" xlink:href="#X"/><use transform="matrix(0.05,0,0,0.05,20,0)" xlink:href="#K"/><use transform="matrix(0.05,0,0,0.05,25.950000000000003,0)" xlink:href="#J"/></g><g id="w"><use transform="matrix(0.05,0,0,0.05,0,0)" xlink:href="#Y"/><use transform="matrix(0.05,0,0,0.05,12,0)" xlink:href="#L"/><use transform="matrix(0.05,0,0,0.05,17,0)" xlink:href="#X"/><use transform="matrix(0.05,0,0,0.05,27,0)" xlink:href="#K"/></g><g id="x"><use transform="matrix(0.05,0,0,0.05,0,0)" xlink:href="#L"/><use transform="matrix(0.05,0,0,0.05,5,0)" xlink:href="#Q"/><use transform="matrix(0.05,0,0,0.05,15,0)" xlink:href="#T"/></g><g id="y"><use transform="matrix(0.05,0,0,0.05,0,0)" xlink:href="#K"/><use transform="matrix(0.05,0,0,0.05,5.95,0)" xlink:href="#Q"/><use transform="matrix(0.05,0,0,0.05,15.949999999999998,0)" xlink:href="#O"/><use transform="matrix(0.05,0,0,0.05,25.950000000000003,0)" xlink:href="#K"/><use transform="matrix(0.05,0,0,0.05,31.899999999999995,0)" xlink:href="#Q"/><use transform="matrix(0.05,0,0,0.05,41.9,0)" xlink:href="#S"/><use transform="matrix(0.05,0,0,0.05,50.9,0)" xlink:href="#Q"/><use transform="matrix(0.05,0,0,0.05,60.900000000000006,0)" xlink:href="#P"/><use transform="matrix(0.05,0,0,0.05,70.9,0)" xlink:href="#L"/><use transform="matrix(0.05,0,0,0.05,75.9,0)" xlink:href="#J"/><use transform="matrix(0.05,0,0,0.05,85.9,0)" xlink:href="#P"/><use transform="matrix(0.05,0,0,0.05,95.9,0)" xlink:href="#L"/><use transform="matrix(0.05,0,0,0.05,100.9,0)" xlink:href="#Q"/></g><g id="z"><use transform="matrix(0.05,0,0,0.05,0,0)" xlink:href="#ae"/><use transform="matrix(0.05,0,0,0.05,12,0)" xlink:href="#I"/><use transform="matrix(0.05,0,0,0.05,24,0)" xlink:href="#ae"/></g><path d="M30 0v-248h33v221h125V0H30" id="as"/><g id="A"><use transform="matrix(0.05,0,0,0.05,0,0)" xlink:href="#Y"/><use transform="matrix(0.05,0,0,0.05,12,0)" xlink:href="#ag"/><use transform="matrix(0.05,0,0,0.05,24.950000000000003,0)" xlink:href="#ae"/><use transform="matrix(0.05,0,0,0.05,36.95,0)" xlink:href="#ae"/><use transform="matrix(0.05,0,0,0.05,48.95,0)" xlink:href="#as"/></g><g id="B"><use transform="matrix(0.05,0,0,0.05,0,0)" xlink:href="#I"/><use transform="matrix(0.05,0,0,0.05,12,0)" xlink:href="#Q"/><use transform="matrix(0.05,0,0,0.05,22,0)" xlink:href="#S"/><use transform="matrix(0.05,0,0,0.05,31,0)" xlink:href="#S"/><use transform="matrix(0.05,0,0,0.05,40,0)" xlink:href="#X"/><use transform="matrix(0.05,0,0,0.05,50,0)" xlink:href="#J"/></g><g id="C"><use transform="matrix(0.05,0,0,0.05,0,0)" xlink:href="#N"/><use transform="matrix(0.05,0,0,0.05,9,0)" xlink:href="#X"/><use transform="matrix(0.05,0,0,0.05,19,0)" xlink:href="#P"/><use transform="matrix(0.05,0,0,0.05,29,0)" xlink:href="#S"/><use transform="matrix(0.05,0,0,0.05,38,0)" xlink:href="#M"/><use transform="matrix(0.05,0,0,0.05,41.95,0)" xlink:href="#S"/><use transform="matrix(0.05,0,0,0.05,50.95,0)" xlink:href="#L"/><use transform="matrix(0.05,0,0,0.05,55.95,0)" xlink:href="#Q"/></g><g id="D"><use transform="matrix(0.05,0,0,0.05,0,0)" xlink:href="#Q"/><use transform="matrix(0.05,0,0,0.05,10,0)" xlink:href="#P"/><use transform="matrix(0.05,0,0,0.05,20,0)" xlink:href="#Z"/><use transform="matrix(0.05,0,0,0.05,29,0)" xlink:href="#M"/><use transform="matrix(0.05,0,0,0.05,32.95,0)" xlink:href="#J"/></g><g id="E"><use transform="matrix(0.05,0,0,0.05,0,0)" xlink:href="#N"/><use transform="matrix(0.05,0,0,0.05,9,0)" xlink:href="#X"/><use transform="matrix(0.05,0,0,0.05,19,0)" xlink:href="#T"/><use transform="matrix(0.05,0,0,0.05,33.95,0)" xlink:href="#O"/><use transform="matrix(0.05,0,0,0.05,43.95,0)" xlink:href="#X"/><use transform="matrix(0.05,0,0,0.05,53.95,0)" xlink:href="#S"/><use transform="matrix(0.05,0,0,0.05,62.95,0)" xlink:href="#L"/><use transform="matrix(0.05,0,0,0.05,67.95,0)" xlink:href="#X"/></g><g id="F"><use transform="matrix(0.05,0,0,0.05,0,0)" xlink:href="#V"/><use transform="matrix(0.05,0,0,0.05,10,0)" xlink:href="#Q"/></g><path d="M27 0v-27h64v-190l-56 39v-29l58-41h29v221h61V0H27" id="at"/><path d="M16-82v-28h88v28H16" id="au"/><path d="M80-196l47-18 7 23-49 13 32 44-20 13-27-46-27 45-21-12 33-44-49-13 8-23 47 19-2-53h23" id="av"/><g id="G"><use transform="matrix(0.05,0,0,0.05,0,0)" xlink:href="#at"/><use transform="matrix(0.05,0,0,0.05,10,0)" xlink:href="#au"/><use transform="matrix(0.05,0,0,0.05,15.949999999999998,0)" xlink:href="#av"/></g><path d="M100-194c62-1 85 37 85 99 1 63-27 99-86 99S16-35 15-95c0-66 28-99 85-99zM99-20c44 1 53-31 53-75 0-43-8-75-51-75s-53 32-53 75 10 74 51 75zm66-238c-3 23-9 48-36 47-26-1-65-44-74 0H39c4-23 8-48 36-47s64 44 74 0h16" id="aw"/><g id="H"><use transform="matrix(0.05,0,0,0.05,0,0)" xlink:href="#T"/><use transform="matrix(0.05,0,0,0.05,14.950000000000001,0)" xlink:href="#Q"/><use transform="matrix(0.05,0,0,0.05,24.950000000000003,0)" xlink:href="#V"/><use transform="matrix(0.05,0,0,0.05,34.95,0)" xlink:href="#M"/><use transform="matrix(0.05,0,0,0.05,38.900000000000006,0)" xlink:href="#ab"/><use transform="matrix(0.05,0,0,0.05,47.900000000000006,0)" xlink:href="#aw"/><use transform="matrix(0.05,0,0,0.05,57.900000000000006,0)" xlink:href="#Q"/><use transform="matrix(0.05,0,0,0.05,67.9,0)" xlink:href="#S"/></g></defs></g></svg>